name pl08_filtered_grf.mot
datacolumns 37
datarows 6
range 0.002500 0.005000
endheader
time	1_ground_force_vx	1_ground_force_vy	1_ground_force_vz	1_ground_force_px	1_ground_force_py	1_ground_force_pz	1_ground_torque_x	1_ground_torque_y	1_ground_torque_z	2_ground_force_vx	2_ground_force_vy	2_ground_force_vz	2_ground_force_px	2_ground_force_py	2_ground_force_pz	2_ground_torque_x	2_ground_torque_y	2_ground_torque_z	3_ground_force_vx	3_ground_force_vy	3_ground_force_vz	3_ground_force_px	3_ground_force_py	3_ground_force_pz	3_ground_torque_x	3_ground_torque_y	3_ground_torque_z	4_ground_force_vx	4_ground_force_vy	4_ground_force_vz	4_ground_force_px	4_ground_force_py	4_ground_force_pz	4_ground_torque_x	4_ground_torque_y	4_ground_torque_z
            0.002500	           -0.000000	            0.000000	            0.000000	            0.144966	            0.000000	            0.187903	            0.000000	            0.000000	           -0.000000	           -0.000000	            0.000000	            0.000000	           -0.143518	            0.000000	            0.238076	            0.000000	           -0.000000	            0.000000	           -1.505517	          289.346784	          207.213372	            0.375850	            1.309556	            1.914178	           -1.801776	           15.666866	          -44.910119	           -1.235967	          378.605253	          256.588816	           -0.265916	            1.309007	            1.926181	            1.288186	          -18.006517	           59.329885
            0.003000	           -0.000000	            0.000000	            0.000000	            0.144966	            0.000000	            0.187903	            0.000000	            0.000000	           -0.000000	           -0.000000	           -0.000000	            0.000000	           -0.143518	            0.000000	            0.238076	           -0.000000	            0.000000	           -0.000000	           -2.112287	          289.535144	          207.768968	            0.375850	            1.309556	            1.914178	           -1.738996	           15.754156	          -44.962884	           -1.243820	          379.049481	          256.874026	           -0.265916	            1.309007	            1.926181	            1.274386	          -18.016189	           59.388376
            0.003500	           -0.000000	            0.000000	            0.000000	            0.144966	            0.000000	            0.187903	            0.000000	            0.000000	           -0.000000	           -0.000000	           -0.000000	            0.000000	           -0.143518	            0.000000	            0.238076	           -0.000000	            0.000000	           -0.000000	           -2.719556	          289.732761	          208.336143	            0.375791	            1.309528	            1.914220	           -1.675739	           15.842404	          -45.017040	           -1.245539	          379.504015	          257.161352	           -0.265921	            1.309006	            1.926188	            1.260464	          -18.026045	           59.448518
            0.004000	           -0.000000	            0.000000	            0.000000	            0.144966	            0.000000	            0.187903	            0.000000	            0.000000	           -0.000000	           -0.000000	           -0.000000	           -0.000000	           -0.143518	            0.000000	            0.238076	           -0.000000	            0.000000	           -0.000000	           -3.326421	          289.939453	          208.914640	            0.375732	            1.309500	            1.914262	           -1.612033	           15.931516	          -45.072527	           -1.241145	          379.968363	          257.450438	           -0.265926	            1.309006	            1.926195	            1.246423	          -18.036090	           59.510262
            0.004500	           -0.000000	            0.000000	            0.000000	            0.144966	            0.000000	            0.187903	            0.000000	            0.000000	           -0.000000	           -0.000000	           -0.000000	           -0.000000	           -0.143518	            0.000000	            0.238076	           -0.000000	            0.000000	           -0.000000	           -3.932046	          290.155031	          209.504193	            0.375673	            1.309472	            1.914304	           -1.547898	           16.021397	          -45.129286	           -1.230709	          380.442041	          257.740964	           -0.265930	            1.309005	            1.926201	            1.232267	          -18.046328	           59.573560
            0.005000	            0.000000	            0.000000	            0.000000	            0.144966	            0.000000	            0.187903	            0.000000	            0.000000	           -0.000000	           -0.000000	           -0.000000	           -0.000000	           -0.143518	            0.000000	            0.238076	           -0.000000	            0.000000	           -0.000000	           -4.535657	          290.379300	          210.104522	            0.375614	            1.309444	            1.914347	           -1.483355	           16.111960	          -45.187259	           -1.214348	          380.924578	          258.032645	           -0.265935	            1.309005	            1.926208	            1.218003	          -18.056766	           59.638362
